HIERARCHY
ROOT joint_Root
{
	OFFSET 0.0 0.0 0.0
	CHANNELS 6 Xposition Yposition Zposition Zrotation Xrotation Yrotation 
	JOINT Hips
	{
		OFFSET -17.1583 93.1646 452.98
		CHANNELS 6 Xposition Yposition Zposition Zrotation Xrotation Yrotation 
		JOINT Spine
		{
			OFFSET 15.7357 0.0 0.0
			CHANNELS 6 Xposition Yposition Zposition Zrotation Xrotation Yrotation 
			JOINT Chest
			{
				OFFSET 8.98455 -0.406207 0.0
				CHANNELS 6 Xposition Yposition Zposition Zrotation Xrotation Yrotation 
				JOINT Neck
				{
					OFFSET 16.3773 0.0 0.0
					CHANNELS 6 Xposition Yposition Zposition Zrotation Xrotation Yrotation 
					JOINT Head
					{
						OFFSET 6.45672 0.0 0.0
						CHANNELS 6 Xposition Yposition Zposition Zrotation Xrotation Yrotation 
						End Site
						{
							OFFSET 0.0 0.0 0.0
						}
					}
				}
				JOINT Shoulder_L
				{
					OFFSET 12.9942 -0.242716 4.98039
					CHANNELS 6 Xposition Yposition Zposition Zrotation Xrotation Yrotation 
					JOINT UpperArm_L
					{
						OFFSET 5.34809 0.0 0.0
						CHANNELS 6 Xposition Yposition Zposition Zrotation Xrotation Yrotation 
						JOINT LowerArm_L
						{
							OFFSET 24.3286 1.87007e-05 0.0
							CHANNELS 6 Xposition Yposition Zposition Zrotation Xrotation Yrotation 
							JOINT Hand_L
							{
								OFFSET 22.2916 0.0 0.0
								CHANNELS 6 Xposition Yposition Zposition Zrotation Xrotation Yrotation 
								End Site
								{
									OFFSET 0.0 0.0 0.0
								}
							}
						}
					}
				}
				JOINT Shoulder_R
				{
					OFFSET 12.9945 -0.242716 -4.98039
					CHANNELS 6 Xposition Yposition Zposition Zrotation Xrotation Yrotation 
					JOINT UpperArm_R
					{
						OFFSET -5.34813 0.0 0.0
						CHANNELS 6 Xposition Yposition Zposition Zrotation Xrotation Yrotation 
						JOINT LowerArm_R
						{
							OFFSET -24.3289 0.000322201 0.0
							CHANNELS 6 Xposition Yposition Zposition Zrotation Xrotation Yrotation 
							JOINT Hand_R
							{
								OFFSET -22.2915 -0.000108084 0.0
								CHANNELS 6 Xposition Yposition Zposition Zrotation Xrotation Yrotation 
								End Site
								{
									OFFSET 0.0 0.0 0.0
								}
							}
						}
					}
				}
			}
		}
		JOINT UpperLeg_L
		{
			OFFSET -2.19248 -6.46944 0.0
			CHANNELS 6 Xposition Yposition Zposition Zrotation Xrotation Yrotation 
			JOINT LowerLeg_L
			{
				OFFSET 39.0811 0.0 -1.23785e-05
				CHANNELS 6 Xposition Yposition Zposition Zrotation Xrotation Yrotation 
				JOINT Foot_L
				{
					OFFSET 40.9854 0.0 -1.26872e-05
					CHANNELS 6 Xposition Yposition Zposition Zrotation Xrotation Yrotation 
					JOINT Toes_L
					{
						OFFSET 11.7543 0.0 0.0
						CHANNELS 6 Xposition Yposition Zposition Zrotation Xrotation Yrotation 
						End Site
						{
							OFFSET 0.0 0.0 0.0
						}
					}
				}
			}
		}
		JOINT UpperLeg_R
		{
			OFFSET -2.19251 6.46944 0.0
			CHANNELS 6 Xposition Yposition Zposition Zrotation Xrotation Yrotation 
			JOINT LowerLeg_R
			{
				OFFSET -39.0811 -0.00228153 -0.0401928
				CHANNELS 6 Xposition Yposition Zposition Zrotation Xrotation Yrotation 
				JOINT Foot_R
				{
					OFFSET -40.9854 0.0 0.0
					CHANNELS 6 Xposition Yposition Zposition Zrotation Xrotation Yrotation 
					JOINT Toes_R
					{
						OFFSET -11.7543 0.0 0.0
						CHANNELS 6 Xposition Yposition Zposition Zrotation Xrotation Yrotation 
						End Site
						{
							OFFSET 0.0 0.0 0.0
						}
					}
				}
			}
		}
	}
}
MOTION
Frames:	5
Frame Time:	0.0333333
0.000000 0.000000 0.000000 0.000000 0.000000 -0.000000 -2.179570 87.076100 -26.826400 86.809900 1.035040 -6.264340 15.735700 0.000005 -0.000001 53.695200 83.905700 -50.700800 8.984550 -0.406207 -0.000000 2.273760 -7.354930 6.135690 16.377300 -0.000001 -0.000001 -2.619580 3.645800 -2.171460 6.456720 -0.000001 -0.000000 -3.767480 7.856140 -4.343680 12.994200 -0.242716 4.980390 -92.709000 8.901880 -72.997400 5.348090 -0.000007 -0.000001 -71.631500 -11.180800 3.626240 24.328600 0.000019 0.000005 50.228000 21.739500 -72.866700 22.291600 -0.000001 0.000005 42.798100 4.235340 20.779000 12.994500 -0.242716 -4.980390 89.371400 1.976850 -72.356300 -5.348130 -0.000001 -0.000004 -64.518400 -11.830200 21.683700 -24.328900 0.000322 -0.000009 5.615930 7.350530 -37.550600 -22.291500 -0.000108 -0.000004 50.378000 5.323880 -0.606835 -2.192480 -6.469440 -0.000000 -177.319000 -2.195640 -10.238500 39.081100 -0.000007 -0.000012 0.210127 -0.060512 73.933000 40.985400 -0.000006 -0.000013 -6.714810 -2.974740 -39.059400 11.754300 -0.000000 0.000003 0.002261 0.058528 -14.202800 -2.192510 6.469440 -0.000001 -171.572000 2.773280 143.540000 -39.081100 -0.002282 -0.040193 0.140930 -0.134400 45.688200 -40.985400 0.000008 0.000006 -0.886561 -5.014970 -72.717600 -11.754300 -0.000006 -0.000006 -0.008019 0.255854 -6.182500
0.000000 0.000000 0.000000 0.000000 0.000000 -0.000000 -2.636310 84.405700 -18.211700 85.607100 1.566420 -4.455310 15.735700 0.000005 -0.000001 66.849900 83.167700 -63.572900 8.984550 -0.406207 -0.000000 4.980410 -5.441070 6.787310 16.377300 -0.000001 -0.000001 -4.585780 2.751550 -1.700120 6.456720 -0.000001 -0.000000 -5.621090 5.966470 -4.429100 12.994200 -0.242716 4.980390 -93.000500 9.748220 -72.799000 5.348090 -0.000007 -0.000001 -70.195200 -14.215200 6.594160 24.328600 0.000019 0.000005 46.826800 24.618100 -68.652700 22.291600 -0.000001 0.000005 42.600400 4.241240 20.690400 12.994500 -0.242716 -4.980390 88.901300 3.440050 -72.274700 -5.348130 -0.000001 -0.000004 -67.383800 -5.673130 12.073600 -24.328900 0.000322 -0.000009 4.494600 6.186360 -36.115500 -22.291500 -0.000108 -0.000004 52.778900 5.331110 -0.818136 -2.192480 -6.469440 -0.000000 -175.677000 -1.707150 -18.298400 39.081100 -0.000007 -0.000012 0.101625 -0.006414 86.384000 40.985400 -0.000006 -0.000013 -2.972030 -5.103160 -41.712500 11.754300 -0.000000 0.000003 0.002253 0.058080 -14.221000 -2.192510 6.469440 -0.000001 -170.296000 4.621660 146.491000 -39.081100 -0.002282 -0.040193 0.004693 -0.000994 55.931300 -40.985400 0.000008 0.000006 -2.466770 -3.409910 -82.545900 -11.754300 -0.000006 -0.000006 -0.006992 0.247266 -6.533130
0.000000 0.000000 0.000000 0.000000 0.000000 -0.000000 -2.981270 83.386100 -9.668500 85.081700 1.874410 -3.689370 15.735700 0.000005 -0.000001 75.433700 82.880500 -71.987400 8.984550 -0.406207 -0.000000 6.143280 -3.619900 7.081050 16.377300 -0.000001 -0.000001 -4.957170 2.169510 -1.346580 6.456720 -0.000001 -0.000000 -6.796930 4.108130 -5.099050 12.994200 -0.242716 4.980390 -93.115600 9.585580 -71.898600 5.348090 -0.000007 -0.000001 -67.901500 -16.125700 11.974700 24.328600 0.000019 0.000005 44.452600 25.873500 -66.020200 22.291600 -0.000001 0.000005 43.316500 4.240340 20.704100 12.994500 -0.242716 -4.980390 88.637400 4.424580 -72.864400 -5.348130 -0.000001 -0.000004 -67.869900 -0.697023 4.631420 -24.328900 0.000322 -0.000009 5.627080 6.538870 -40.863200 -22.291500 -0.000108 -0.000004 49.940900 5.380090 -2.304440 -2.192480 -6.469440 -0.000000 -175.031000 -0.074713 -26.829300 39.081100 -0.000007 -0.000012 0.013001 0.000613 92.656800 40.985400 -0.000006 -0.000013 -2.537850 -3.995770 -46.696800 11.754300 -0.000000 0.000003 0.002361 0.064928 -13.943300 -2.192510 6.469440 -0.000001 -169.953000 5.266360 152.999000 -39.081100 -0.002282 -0.040193 0.013258 -0.006299 57.913800 -40.985400 0.000008 0.000006 -3.066750 -2.822770 -88.864700 -11.754300 -0.000006 -0.000006 -0.003608 0.214968 -7.849650
0.000000 0.000000 0.000000 0.000000 0.000000 -0.000000 -2.748230 84.253400 -1.088850 86.704900 1.714550 -4.394160 15.735700 0.000005 -0.000001 85.265100 83.599100 -82.429000 8.984550 -0.406207 -0.000000 5.027050 -1.122210 5.715170 16.377300 -0.000001 -0.000001 -4.328030 1.171770 -1.026880 6.456720 -0.000001 -0.000000 -6.147810 1.719340 -5.410070 12.994200 -0.242716 4.980390 -92.902400 8.577500 -71.225300 5.348090 -0.000007 -0.000001 -64.435400 -17.182000 17.585000 24.328600 0.000019 0.000005 44.832000 28.035300 -64.696300 22.291600 -0.000001 0.000005 43.876400 4.276410 20.154500 12.994500 -0.242716 -4.980390 88.573400 4.742320 -73.236700 -5.348130 -0.000001 -0.000004 -67.685400 1.496240 1.843570 -24.328900 0.000322 -0.000009 9.869310 7.840550 -51.895500 -22.291500 -0.000108 -0.000004 51.561600 5.375010 -2.143440 -2.192480 -6.469440 -0.000000 -177.234000 1.628010 -34.280400 39.081100 -0.000007 -0.000012 -0.035914 -0.000632 91.022600 40.985400 -0.000006 -0.000013 -3.027690 -3.388040 -53.431600 11.754300 -0.000000 0.000003 0.002123 0.051715 -14.479100 -2.192510 6.469440 -0.000001 -172.810000 7.016840 161.047000 -39.081100 -0.002282 -0.040193 0.013391 -0.007506 53.537800 -40.985400 0.000008 0.000006 -4.067330 0.527166 -89.746000 -11.754300 -0.000006 -0.000006 0.001349 0.140579 -10.872300
0.000000 0.000000 0.000000 0.000000 0.000000 -0.000000 -2.177440 86.667200 7.837710 89.126800 1.886320 -5.719780 15.735700 0.000005 -0.000001 96.127000 84.369600 -94.281600 8.984550 -0.406207 -0.000000 3.415550 1.130480 3.653240 16.377300 -0.000001 -0.000001 -3.625840 0.175844 -0.394835 6.456720 -0.000001 -0.000000 -5.293750 -0.798903 -4.898480 12.994200 -0.242716 4.980390 -92.589200 7.365430 -70.569700 5.348090 -0.000007 -0.000001 -60.230900 -18.394500 21.992800 24.328600 0.000019 0.000005 44.046700 28.626100 -63.650400 22.291600 -0.000001 0.000005 44.019500 4.213380 21.111000 12.994500 -0.242716 -4.980390 88.676100 4.513550 -73.633800 -5.348130 -0.000001 -0.000004 -68.011400 1.975170 1.295830 -24.328900 0.000322 -0.000009 10.863700 5.398140 -63.892000 -22.291500 -0.000108 -0.000004 52.115400 5.369270 -1.964370 -2.192480 -6.469440 -0.000000 179.705000 4.263920 -38.739100 39.081100 -0.000007 -0.000012 -0.055440 0.008059 81.737100 40.985400 -0.000006 -0.000013 -3.937820 -5.171430 -59.611500 11.754300 -0.000000 0.000003 0.002296 0.060562 -14.120400 -2.192510 6.469440 -0.000001 -177.066000 9.000200 169.958000 -39.081100 -0.002282 -0.040193 0.021386 -0.018382 44.589100 -40.985400 0.000008 0.000006 -5.754420 3.783620 -83.273400 -11.754300 -0.000006 -0.000006 0.000080 0.001357 -16.518700
